<svg width="31" height="30" viewBox="0 0 31 30" fill="none" xmlns="http://www.w3.org/2000/svg">
<g id="fi_8017777">
<path id="Vector" fill-rule="evenodd" clip-rule="evenodd" d="M23 15C25.7614 15 28 12.7614 28 10C28 7.23857 25.7614 5 23 5C20.6703 5 18.7126 6.59346 18.1575 8.75H4.25C3.55965 8.75 3 9.30965 3 10C3 10.6904 3.55965 11.25 4.25 11.25H18.1575C18.7126 13.4065 20.6703 15 23 15ZM20.5 10C20.5 11.3807 21.6193 12.5 23 12.5C24.3808 12.5 25.5 11.3807 25.5 10C25.5 8.61929 24.3808 7.5 23 7.5C21.6193 7.5 20.5 8.61929 20.5 10ZM3 20C3 17.2386 5.23858 15 8 15C10.3298 15 12.2874 16.5935 12.8425 18.75H26.75C27.4404 18.75 28 19.3096 28 20C28 20.6904 27.4404 21.25 26.75 21.25H12.8425C12.2874 23.4065 10.3298 25 8 25C5.23858 25 3 22.7614 3 20ZM10.5 20C10.5 18.6193 9.38071 17.5 8 17.5C6.61929 17.5 5.5 18.6193 5.5 20C5.5 21.3808 6.61929 22.5 8 22.5C9.38071 22.5 10.5 21.3808 10.5 20Z" fill="#696969"/>
</g>
</svg>
