<svg width="20" height="21" viewBox="0 0 20 21" fill="none" xmlns="http://www.w3.org/2000/svg">
<g id="fi_8556425" clip-path="url(#clip0_2_1449)">
<path id="Vector" d="M10 20.5C15.5228 20.5 20 16.0228 20 10.5C20 4.97715 15.5228 0.5 10 0.5C4.47715 0.5 0 4.97715 0 10.5C0 16.0228 4.47715 20.5 10 20.5Z" fill="#107DD7"/>
<path id="Vector_2" d="M10 12.1667C10.9167 12.1667 11.6667 11.4167 11.6667 10.5C11.6667 9.58334 10.9167 8.83334 10 8.83334C9.08337 8.83334 8.33337 9.58334 8.33337 10.5C8.33337 11.4167 9.08337 12.1667 10 12.1667ZM5.00004 12.1667C5.91671 12.1667 6.66671 11.4167 6.66671 10.5C6.66671 9.58334 5.91671 8.83334 5.00004 8.83334C4.08337 8.83334 3.33337 9.58334 3.33337 10.5C3.33337 11.4167 4.08337 12.1667 5.00004 12.1667ZM15 12.1667C15.9167 12.1667 16.6667 11.4167 16.6667 10.5C16.6667 9.58334 15.9167 8.83334 15 8.83334C14.0834 8.83334 13.3334 9.58334 13.3334 10.5C13.3334 11.4167 14.0834 12.1667 15 12.1667Z" fill="white"/>
</g>
<defs>
<clipPath id="clip0_2_1449">
<rect width="20" height="20" fill="white" transform="translate(0 0.5)"/>
</clipPath>
</defs>
</svg>
